<mxfile host="app.diagrams.net" modified="2024-03-06T13:44:20.591Z" agent="Mozilla/5.0 (X11; Ubuntu; Linux x86_64; rv:123.0) Gecko/20100101 Firefox/123.0" etag="QdvcQelOKRqkw7klctYp" version="24.0.2" type="github">
  <diagram id="C5RBs43oDa-KdzZeNtuy" name="Page-1">
    <mxGraphModel dx="956" dy="1079" grid="1" gridSize="10" guides="1" tooltips="1" connect="1" arrows="1" fold="1" page="1" pageScale="1" pageWidth="827" pageHeight="1169" math="0" shadow="0">
      <root>
        <mxCell id="WIyWlLk6GJQsqaUBKTNV-0" />
        <mxCell id="WIyWlLk6GJQsqaUBKTNV-1" parent="WIyWlLk6GJQsqaUBKTNV-0" />
        <mxCell id="twW0pslhfUptduBOn1QC-30" value="" style="rounded=0;whiteSpace=wrap;html=1;fillColor=#fff2cc;strokeColor=#d6b656;" vertex="1" parent="WIyWlLk6GJQsqaUBKTNV-1">
          <mxGeometry x="480" y="530" width="380" height="310" as="geometry" />
        </mxCell>
        <mxCell id="twW0pslhfUptduBOn1QC-41" style="edgeStyle=orthogonalEdgeStyle;rounded=0;orthogonalLoop=1;jettySize=auto;html=1;exitX=1;exitY=0.5;exitDx=0;exitDy=0;entryX=0.5;entryY=0;entryDx=0;entryDy=0;" edge="1" parent="WIyWlLk6GJQsqaUBKTNV-1" source="WIyWlLk6GJQsqaUBKTNV-3" target="twW0pslhfUptduBOn1QC-7">
          <mxGeometry relative="1" as="geometry" />
        </mxCell>
        <mxCell id="WIyWlLk6GJQsqaUBKTNV-3" value="SAVE ROLLE" style="rounded=1;whiteSpace=wrap;html=1;fontSize=12;glass=0;strokeWidth=1;shadow=0;fillColor=#d5e8d4;strokeColor=#82b366;fontStyle=1" parent="WIyWlLk6GJQsqaUBKTNV-1" vertex="1">
          <mxGeometry x="160" y="80" width="120" height="40" as="geometry" />
        </mxCell>
        <mxCell id="twW0pslhfUptduBOn1QC-0" value="&lt;div&gt;Berechtigungen&lt;/div&gt;&lt;div&gt;granted_Ass, granted_Adm&lt;br&gt; &lt;/div&gt;" style="rounded=0;whiteSpace=wrap;html=1;fillColor=#dae8fc;strokeColor=#6c8ebf;" vertex="1" parent="WIyWlLk6GJQsqaUBKTNV-1">
          <mxGeometry x="20" y="140" width="170" height="60" as="geometry" />
        </mxCell>
        <mxCell id="twW0pslhfUptduBOn1QC-3" style="edgeStyle=orthogonalEdgeStyle;rounded=0;orthogonalLoop=1;jettySize=auto;html=1;exitX=0.5;exitY=1;exitDx=0;exitDy=0;" edge="1" parent="WIyWlLk6GJQsqaUBKTNV-1" target="twW0pslhfUptduBOn1QC-15">
          <mxGeometry relative="1" as="geometry">
            <mxPoint x="265" y="260" as="sourcePoint" />
            <mxPoint x="405" y="330" as="targetPoint" />
            <Array as="points">
              <mxPoint x="265" y="330" />
              <mxPoint x="490" y="330" />
            </Array>
          </mxGeometry>
        </mxCell>
        <mxCell id="twW0pslhfUptduBOn1QC-6" style="edgeStyle=orthogonalEdgeStyle;rounded=0;orthogonalLoop=1;jettySize=auto;html=1;" edge="1" parent="WIyWlLk6GJQsqaUBKTNV-1" source="twW0pslhfUptduBOn1QC-7">
          <mxGeometry relative="1" as="geometry">
            <mxPoint x="265.0344827586207" y="220" as="targetPoint" />
          </mxGeometry>
        </mxCell>
        <mxCell id="twW0pslhfUptduBOn1QC-7" value="&lt;div&gt;Student&lt;/div&gt;&lt;div&gt;?&lt;br&gt;&lt;/div&gt;" style="rhombus;whiteSpace=wrap;html=1;shadow=0;fontFamily=Helvetica;fontSize=12;align=center;strokeWidth=1;spacing=6;spacingTop=-4;fillColor=#dae8fc;strokeColor=#6c8ebf;" vertex="1" parent="WIyWlLk6GJQsqaUBKTNV-1">
          <mxGeometry x="400" y="120" width="180" height="80" as="geometry" />
        </mxCell>
        <mxCell id="twW0pslhfUptduBOn1QC-8" style="edgeStyle=orthogonalEdgeStyle;rounded=0;orthogonalLoop=1;jettySize=auto;html=1;exitX=0.5;exitY=1;exitDx=0;exitDy=0;entryX=0.5;entryY=0;entryDx=0;entryDy=0;" edge="1" parent="WIyWlLk6GJQsqaUBKTNV-1" source="twW0pslhfUptduBOn1QC-7" target="twW0pslhfUptduBOn1QC-15">
          <mxGeometry relative="1" as="geometry">
            <mxPoint x="490.5000000000002" y="299.15999999999985" as="targetPoint" />
          </mxGeometry>
        </mxCell>
        <mxCell id="twW0pslhfUptduBOn1QC-9" value="NO" style="text;html=1;align=center;verticalAlign=middle;whiteSpace=wrap;rounded=0;" vertex="1" parent="WIyWlLk6GJQsqaUBKTNV-1">
          <mxGeometry x="480" y="230" width="60" height="30" as="geometry" />
        </mxCell>
        <mxCell id="twW0pslhfUptduBOn1QC-10" value="YES" style="text;html=1;align=center;verticalAlign=middle;whiteSpace=wrap;rounded=0;" vertex="1" parent="WIyWlLk6GJQsqaUBKTNV-1">
          <mxGeometry x="290" y="130" width="60" height="30" as="geometry" />
        </mxCell>
        <mxCell id="twW0pslhfUptduBOn1QC-11" value="&lt;div&gt;checkIfExistingStudentRolle&lt;/div&gt;" style="rounded=1;whiteSpace=wrap;html=1;fontSize=12;glass=0;strokeWidth=1;shadow=0;" vertex="1" parent="WIyWlLk6GJQsqaUBKTNV-1">
          <mxGeometry x="170" y="225" width="190" height="40" as="geometry" />
        </mxCell>
        <mxCell id="twW0pslhfUptduBOn1QC-13" style="edgeStyle=orthogonalEdgeStyle;rounded=0;orthogonalLoop=1;jettySize=auto;html=1;exitX=1;exitY=0.5;exitDx=0;exitDy=0;" edge="1" parent="WIyWlLk6GJQsqaUBKTNV-1" source="twW0pslhfUptduBOn1QC-15">
          <mxGeometry relative="1" as="geometry">
            <mxPoint x="675.0344827586207" y="529.9999999999998" as="targetPoint" />
          </mxGeometry>
        </mxCell>
        <mxCell id="twW0pslhfUptduBOn1QC-38" style="edgeStyle=orthogonalEdgeStyle;rounded=0;orthogonalLoop=1;jettySize=auto;html=1;" edge="1" parent="WIyWlLk6GJQsqaUBKTNV-1" source="twW0pslhfUptduBOn1QC-15" target="twW0pslhfUptduBOn1QC-36">
          <mxGeometry relative="1" as="geometry">
            <Array as="points">
              <mxPoint x="360" y="380" />
              <mxPoint x="360" y="1060" />
            </Array>
          </mxGeometry>
        </mxCell>
        <mxCell id="twW0pslhfUptduBOn1QC-15" value="&lt;div&gt;Berechtigung&lt;/div&gt;&lt;div&gt;SkipStatusPrfg&lt;br&gt;&lt;/div&gt;&lt;div&gt;?&lt;br&gt;&lt;/div&gt;" style="rhombus;whiteSpace=wrap;html=1;shadow=0;fontFamily=Helvetica;fontSize=12;align=center;strokeWidth=1;spacing=6;spacingTop=-4;fillColor=#dae8fc;strokeColor=#6c8ebf;" vertex="1" parent="WIyWlLk6GJQsqaUBKTNV-1">
          <mxGeometry x="399.97" y="340" width="180" height="80" as="geometry" />
        </mxCell>
        <mxCell id="twW0pslhfUptduBOn1QC-18" value="NO" style="text;html=1;align=center;verticalAlign=middle;whiteSpace=wrap;rounded=0;" vertex="1" parent="WIyWlLk6GJQsqaUBKTNV-1">
          <mxGeometry x="599.97" y="440" width="60" height="30" as="geometry" />
        </mxCell>
        <mxCell id="twW0pslhfUptduBOn1QC-20" value="&lt;div&gt;checkDatumNewStatus&lt;/div&gt;" style="rounded=1;whiteSpace=wrap;html=1;fontSize=12;glass=0;strokeWidth=1;shadow=0;" vertex="1" parent="WIyWlLk6GJQsqaUBKTNV-1">
          <mxGeometry x="520" y="580" width="150" height="40" as="geometry" />
        </mxCell>
        <mxCell id="twW0pslhfUptduBOn1QC-21" value="&lt;div&gt;checkDatum Semesterstart&lt;br&gt;&lt;/div&gt;" style="rounded=1;whiteSpace=wrap;html=1;fontSize=12;glass=0;strokeWidth=1;shadow=0;" vertex="1" parent="WIyWlLk6GJQsqaUBKTNV-1">
          <mxGeometry x="520" y="640" width="150" height="40" as="geometry" />
        </mxCell>
        <mxCell id="twW0pslhfUptduBOn1QC-22" value="&lt;div&gt;Abbrecher und Absolvent:&lt;/div&gt;&lt;div&gt;letzter Status&lt;br&gt;&lt;/div&gt;" style="rounded=1;whiteSpace=wrap;html=1;fontSize=12;glass=0;strokeWidth=1;shadow=0;" vertex="1" parent="WIyWlLk6GJQsqaUBKTNV-1">
          <mxGeometry x="690" y="580" width="150" height="40" as="geometry" />
        </mxCell>
        <mxCell id="twW0pslhfUptduBOn1QC-23" value="aufeinanderfolgende Unterbrecher: gleiches Ausbildungssemester" style="rounded=1;whiteSpace=wrap;html=1;fontSize=12;glass=0;strokeWidth=1;shadow=0;" vertex="1" parent="WIyWlLk6GJQsqaUBKTNV-1">
          <mxGeometry x="690" y="640" width="150" height="40" as="geometry" />
        </mxCell>
        <mxCell id="twW0pslhfUptduBOn1QC-24" value="Kein Studentenstatus nach Diplomand" style="rounded=1;whiteSpace=wrap;html=1;fontSize=12;glass=0;strokeWidth=1;shadow=0;" vertex="1" parent="WIyWlLk6GJQsqaUBKTNV-1">
          <mxGeometry x="690" y="710" width="150" height="40" as="geometry" />
        </mxCell>
        <mxCell id="twW0pslhfUptduBOn1QC-25" value="Abbrecher nach Unterbrecher: gleiches Ausbildungssemester" style="rounded=1;whiteSpace=wrap;html=1;fontSize=12;glass=0;strokeWidth=1;shadow=0;" vertex="1" parent="WIyWlLk6GJQsqaUBKTNV-1">
          <mxGeometry x="520" y="710" width="150" height="40" as="geometry" />
        </mxCell>
        <mxCell id="twW0pslhfUptduBOn1QC-26" value="YES" style="text;html=1;align=center;verticalAlign=middle;whiteSpace=wrap;rounded=0;" vertex="1" parent="WIyWlLk6GJQsqaUBKTNV-1">
          <mxGeometry x="279.97" y="440" width="60" height="30" as="geometry" />
        </mxCell>
        <mxCell id="twW0pslhfUptduBOn1QC-27" value="CheckValidHistory" style="text;html=1;align=center;verticalAlign=middle;whiteSpace=wrap;rounded=0;fontStyle=1" vertex="1" parent="WIyWlLk6GJQsqaUBKTNV-1">
          <mxGeometry x="640" y="540" width="60" height="30" as="geometry" />
        </mxCell>
        <mxCell id="twW0pslhfUptduBOn1QC-37" style="edgeStyle=orthogonalEdgeStyle;rounded=0;orthogonalLoop=1;jettySize=auto;html=1;" edge="1" parent="WIyWlLk6GJQsqaUBKTNV-1" source="twW0pslhfUptduBOn1QC-32">
          <mxGeometry relative="1" as="geometry">
            <mxPoint x="510" y="1060" as="targetPoint" />
            <Array as="points">
              <mxPoint x="670" y="1060" />
            </Array>
          </mxGeometry>
        </mxCell>
        <mxCell id="twW0pslhfUptduBOn1QC-32" value="&lt;div&gt;checkIfMeldestichtagErreicht&lt;br&gt;&lt;/div&gt;" style="rounded=1;whiteSpace=wrap;html=1;fontSize=12;glass=0;strokeWidth=1;shadow=0;" vertex="1" parent="WIyWlLk6GJQsqaUBKTNV-1">
          <mxGeometry x="599.97" y="900" width="190" height="40" as="geometry" />
        </mxCell>
        <mxCell id="twW0pslhfUptduBOn1QC-34" style="edgeStyle=orthogonalEdgeStyle;rounded=0;orthogonalLoop=1;jettySize=auto;html=1;entryX=0.373;entryY=-0.044;entryDx=0;entryDy=0;entryPerimeter=0;" edge="1" parent="WIyWlLk6GJQsqaUBKTNV-1" source="twW0pslhfUptduBOn1QC-30" target="twW0pslhfUptduBOn1QC-32">
          <mxGeometry relative="1" as="geometry" />
        </mxCell>
        <mxCell id="twW0pslhfUptduBOn1QC-35" value="anlegen / update StudentLehrverband" style="rounded=1;whiteSpace=wrap;html=1;fontSize=12;glass=0;strokeWidth=1;shadow=0;" vertex="1" parent="WIyWlLk6GJQsqaUBKTNV-1">
          <mxGeometry x="200" y="1210" width="190" height="40" as="geometry" />
        </mxCell>
        <mxCell id="twW0pslhfUptduBOn1QC-39" style="edgeStyle=orthogonalEdgeStyle;rounded=0;orthogonalLoop=1;jettySize=auto;html=1;exitX=0;exitY=0.5;exitDx=0;exitDy=0;" edge="1" parent="WIyWlLk6GJQsqaUBKTNV-1" source="twW0pslhfUptduBOn1QC-36" target="twW0pslhfUptduBOn1QC-35">
          <mxGeometry relative="1" as="geometry" />
        </mxCell>
        <mxCell id="twW0pslhfUptduBOn1QC-45" style="edgeStyle=orthogonalEdgeStyle;rounded=0;orthogonalLoop=1;jettySize=auto;html=1;exitX=1;exitY=0.5;exitDx=0;exitDy=0;entryX=1;entryY=0.5;entryDx=0;entryDy=0;" edge="1" parent="WIyWlLk6GJQsqaUBKTNV-1" source="twW0pslhfUptduBOn1QC-36" target="twW0pslhfUptduBOn1QC-42">
          <mxGeometry relative="1" as="geometry">
            <Array as="points">
              <mxPoint x="670" y="1110" />
              <mxPoint x="670" y="1370" />
            </Array>
          </mxGeometry>
        </mxCell>
        <mxCell id="twW0pslhfUptduBOn1QC-36" value="&lt;div&gt;Student&lt;/div&gt;&lt;div&gt;?&lt;br&gt;&lt;/div&gt;" style="rhombus;whiteSpace=wrap;html=1;shadow=0;fontFamily=Helvetica;fontSize=12;align=center;strokeWidth=1;spacing=6;spacingTop=-4;fillColor=#dae8fc;strokeColor=#6c8ebf;" vertex="1" parent="WIyWlLk6GJQsqaUBKTNV-1">
          <mxGeometry x="420" y="1070" width="180" height="80" as="geometry" />
        </mxCell>
        <mxCell id="twW0pslhfUptduBOn1QC-40" value="YES" style="text;html=1;align=center;verticalAlign=middle;whiteSpace=wrap;rounded=0;" vertex="1" parent="WIyWlLk6GJQsqaUBKTNV-1">
          <mxGeometry x="300" y="1120" width="60" height="30" as="geometry" />
        </mxCell>
        <mxCell id="twW0pslhfUptduBOn1QC-42" value="SAVE" style="rounded=1;whiteSpace=wrap;html=1;fontSize=12;glass=0;strokeWidth=1;shadow=0;" vertex="1" parent="WIyWlLk6GJQsqaUBKTNV-1">
          <mxGeometry x="420" y="1350" width="190" height="40" as="geometry" />
        </mxCell>
        <mxCell id="twW0pslhfUptduBOn1QC-43" style="edgeStyle=orthogonalEdgeStyle;rounded=0;orthogonalLoop=1;jettySize=auto;html=1;entryX=-0.001;entryY=0.654;entryDx=0;entryDy=0;entryPerimeter=0;" edge="1" parent="WIyWlLk6GJQsqaUBKTNV-1" source="twW0pslhfUptduBOn1QC-35" target="twW0pslhfUptduBOn1QC-42">
          <mxGeometry relative="1" as="geometry">
            <Array as="points">
              <mxPoint x="300" y="1376" />
            </Array>
          </mxGeometry>
        </mxCell>
        <mxCell id="twW0pslhfUptduBOn1QC-44" value="NO" style="text;html=1;align=center;verticalAlign=middle;whiteSpace=wrap;rounded=0;" vertex="1" parent="WIyWlLk6GJQsqaUBKTNV-1">
          <mxGeometry x="539.97" y="1150" width="60" height="30" as="geometry" />
        </mxCell>
      </root>
    </mxGraphModel>
  </diagram>
</mxfile>
